<svg xmlns="http://www.w3.org/2000/svg" width="224" height="65.164" viewBox="0 0 224 65.164"><defs><style>.a{fill:#01599a;}.b{fill:#fff;}.c{fill:#222d39;}</style></defs><g transform="translate(-406 -3067)"><g transform="translate(406 3067)"><path class="a" d="M511.253,514.4a11.243,11.243,0,0,0-10.838-10.862H457.067A11.242,11.242,0,0,0,446.231,514.4V557.84A11.24,11.24,0,0,0,457.067,568.7h43.348a11.241,11.241,0,0,0,10.838-10.858Zm0,0" transform="translate(-446.231 -503.534)"/></g><g transform="translate(420.955 3074.82)"><g transform="translate(0 0)"><path class="b" d="M472.855,522.208a17.446,17.446,0,0,0-9.735,2.947V512.191a4.1,4.1,0,0,0-4.041-4.331c-2.388,0-3.79,1.935-3.79,4.331v27.6a17.556,17.556,0,1,0,17.566-17.584Zm0,27.332a9.743,9.743,0,1,1,9.719-9.747,9.736,9.736,0,0,1-9.719,9.747Zm0,0" transform="translate(-455.289 -507.86)"/></g></g><path class="c" d="M519.349,545.152a16.356,16.356,0,0,1-5.258-3.536,16.422,16.422,0,0,1,0-23.276,16.367,16.367,0,0,1,5.258-3.536,16.284,16.284,0,0,1,12.617-.014,16.582,16.582,0,0,1,5.276,3.518,16.819,16.819,0,0,1,3.536,5.253,16.212,16.212,0,0,1,1.323,6.3,2.755,2.755,0,0,1-.8,2.021,2.812,2.812,0,0,1-2.077.806H515.833a9.78,9.78,0,0,0,1.275,3.168,11.008,11.008,0,0,0,2.211,2.559,9.889,9.889,0,0,0,6.365,2.292,11.307,11.307,0,0,0,2.832-.3,8.89,8.89,0,0,0,2.326-1.011,3.6,3.6,0,0,1,1.776-.541,2.807,2.807,0,0,1,2.045.912,3.374,3.374,0,0,1,.638,1.009,3.105,3.105,0,0,1,.234,1.178q0,2.058-2.947,3.3a14.014,14.014,0,0,1-3.133.876,22.708,22.708,0,0,1-3.769.3A16.075,16.075,0,0,1,519.349,545.152Zm16.688-17.45a9.935,9.935,0,0,0-1.207-3.353,10.049,10.049,0,0,0-2.275-2.71,10.635,10.635,0,0,0-3.119-1.787,10.8,10.8,0,0,0-7.321,0,9.78,9.78,0,0,0-3.065,1.82,9.893,9.893,0,0,0-2.211,2.712,10.436,10.436,0,0,0-1.171,3.319Z" transform="translate(12.465 2575.462)"/><path class="c" d="M539.34,545.152a16.343,16.343,0,0,1-5.261-3.536,16.427,16.427,0,0,1,0-23.276,16.4,16.4,0,0,1,5.261-3.536,16.277,16.277,0,0,1,12.614-.014,16.589,16.589,0,0,1,5.279,3.518,16.846,16.846,0,0,1,3.534,5.253,16.209,16.209,0,0,1,1.323,6.3,2.747,2.747,0,0,1-.8,2.021,2.81,2.81,0,0,1-2.077.806H535.822a9.811,9.811,0,0,0,1.271,3.168,11.012,11.012,0,0,0,2.211,2.559,9.888,9.888,0,0,0,6.365,2.292,11.282,11.282,0,0,0,2.831-.3,8.885,8.885,0,0,0,2.329-1.011,3.6,3.6,0,0,1,1.776-.541,2.8,2.8,0,0,1,2.043.912,3.306,3.306,0,0,1,.638,1.009,3.108,3.108,0,0,1,.234,1.178q0,2.058-2.947,3.3a13.993,13.993,0,0,1-3.133.876,22.665,22.665,0,0,1-3.769.3A16.036,16.036,0,0,1,539.34,545.152Zm16.685-17.45a10.118,10.118,0,0,0-3.486-6.063,10.548,10.548,0,0,0-6.768-2.427,10.469,10.469,0,0,0-3.667.639,10.089,10.089,0,0,0-5.278,4.531,10.429,10.429,0,0,0-1.171,3.319Z" transform="translate(30.182 2575.462)"/><path class="c" d="M550.972,555.965a3.013,3.013,0,0,1-.89-2.213V530.041a16.178,16.178,0,0,1,1.277-6.368,16.716,16.716,0,0,1,3.567-5.322,16.545,16.545,0,0,1,5.266-3.546,16.324,16.324,0,0,1,12.683,0,16.473,16.473,0,0,1,5.264,3.546,16.763,16.763,0,0,1,3.516,5.305,16.551,16.551,0,0,1-3.516,18.034,16.471,16.471,0,0,1-5.264,3.546,16.01,16.01,0,0,1-6.342,1.284,16.333,16.333,0,0,1-5.685-.98A15.938,15.938,0,0,1,556,542.7V553.75a3.185,3.185,0,0,1-.809,2.214,2.681,2.681,0,0,1-2.084.893A2.908,2.908,0,0,1,550.972,555.965Zm19.633-16.23a10.148,10.148,0,0,0,3.362-2.3,10.285,10.285,0,0,0,2.238-3.361,10.692,10.692,0,0,0,0-8.072,10.495,10.495,0,0,0-17.107-3.359A10.52,10.52,0,0,0,556.844,526a10.492,10.492,0,0,0,0,8.072,10.487,10.487,0,0,0,2.254,3.361,10.173,10.173,0,0,0,3.364,2.3,10.635,10.635,0,0,0,8.144,0Z" transform="translate(47.082 2575.307)"/><path class="c" d="M550.972,514.414a3.013,3.013,0,0,0-.89,2.213v24.689a16.178,16.178,0,0,0,1.277,6.368,16.714,16.714,0,0,0,3.567,5.322,16.546,16.546,0,0,0,5.266,3.546,16.325,16.325,0,0,0,12.683,0,16.472,16.472,0,0,0,5.264-3.546,16.76,16.76,0,0,0,3.516-5.305,16.551,16.551,0,0,0-3.516-18.034,16.473,16.473,0,0,0-5.264-3.546,16.011,16.011,0,0,0-6.342-1.284,16.335,16.335,0,0,0-5.684.98A15.94,15.94,0,0,0,556,528.652V516.629a3.184,3.184,0,0,0-.809-2.213,2.68,2.68,0,0,0-2.084-.893A2.907,2.907,0,0,0,550.972,514.414Zm19.633,17.208a10.151,10.151,0,0,1,3.362,2.3,10.28,10.28,0,0,1,2.238,3.361,10.69,10.69,0,0,1,0,8.072,10.495,10.495,0,0,1-17.107,3.359,10.521,10.521,0,0,1-2.255-3.359,10.5,10.5,0,0,1,0-8.072,10.486,10.486,0,0,1,2.255-3.361,10.175,10.175,0,0,1,3.364-2.3,10.634,10.634,0,0,1,8.144,0Z" transform="translate(-66.056 2563.903)"/></g></svg>