<svg xmlns="http://www.w3.org/2000/svg" width="100.135" height="29.067" viewBox="0 0 100.135 29.067"><defs><style>.a{fill:#01599a;}.b{fill:#fff;}.c{fill:#222d39;}</style></defs><g transform="translate(-216 -1854)"><g transform="translate(216 1854)"><path class="a" d="M475.3,508.379a5.021,5.021,0,0,0-4.845-4.845H451.075a5.02,5.02,0,0,0-4.844,4.845v19.379a5.019,5.019,0,0,0,4.844,4.843h19.378a5.02,5.02,0,0,0,4.845-4.843Zm0,0" transform="translate(-446.231 -503.534)"/></g><g transform="translate(222.685 1857.488)"><path class="b" d="M463.141,514.26a7.81,7.81,0,0,0-4.352,1.314v-5.782a1.831,1.831,0,0,0-1.806-1.932,1.742,1.742,0,0,0-1.694,1.932V522.1a7.848,7.848,0,1,0,7.852-7.843Zm0,12.192a4.346,4.346,0,1,1,4.345-4.348,4.348,4.348,0,0,1-4.345,4.348Zm0,0" transform="translate(-455.289 -507.86)"/></g><path class="c" d="M513.774,527.632a7.314,7.314,0,0,1-2.351-1.577,7.315,7.315,0,0,1,0-10.382,7.317,7.317,0,0,1,2.351-1.577,7.295,7.295,0,0,1,5.64-.006,7.415,7.415,0,0,1,2.359,1.569A7.5,7.5,0,0,1,523.353,518a7.216,7.216,0,0,1,.591,2.81,1.227,1.227,0,0,1-.359.9,1.259,1.259,0,0,1-.928.36H512.2a4.358,4.358,0,0,0,.57,1.413,4.915,4.915,0,0,0,.988,1.142,4.426,4.426,0,0,0,2.845,1.022,5.067,5.067,0,0,0,1.266-.135,3.974,3.974,0,0,0,1.04-.451,1.614,1.614,0,0,1,.794-.241,1.256,1.256,0,0,1,.914.407,1.506,1.506,0,0,1,.285.45,1.384,1.384,0,0,1,.1.526q0,.918-1.317,1.472a6.278,6.278,0,0,1-1.4.391,10.18,10.18,0,0,1-1.685.135A7.2,7.2,0,0,1,513.774,527.632Zm7.46-7.784a4.426,4.426,0,0,0-.539-1.5,4.486,4.486,0,0,0-1.017-1.209,4.734,4.734,0,0,0-3.027-1.082,4.7,4.7,0,0,0-1.64.285,4.518,4.518,0,0,0-2.359,2.021,4.645,4.645,0,0,0-.523,1.48Z" transform="translate(-241.531 1350.283)"/><path class="c" d="M533.763,527.632a7.309,7.309,0,0,1-2.352-1.577,7.317,7.317,0,0,1,0-10.382,7.329,7.329,0,0,1,2.352-1.577,7.292,7.292,0,0,1,5.639-.006,7.416,7.416,0,0,1,2.359,1.569,7.512,7.512,0,0,1,1.58,2.343,7.216,7.216,0,0,1,.591,2.81,1.224,1.224,0,0,1-.359.9,1.258,1.258,0,0,1-.928.36H532.19a4.369,4.369,0,0,0,.568,1.413,4.913,4.913,0,0,0,.989,1.142,4.426,4.426,0,0,0,2.846,1.022,5.056,5.056,0,0,0,1.265-.135,3.973,3.973,0,0,0,1.041-.451,1.611,1.611,0,0,1,.794-.241,1.254,1.254,0,0,1,.913.407,1.476,1.476,0,0,1,.285.45,1.384,1.384,0,0,1,.1.526q0,.918-1.317,1.472a6.269,6.269,0,0,1-1.4.391,10.16,10.16,0,0,1-1.685.135A7.183,7.183,0,0,1,533.763,527.632Zm7.459-7.784a4.511,4.511,0,0,0-1.558-2.7,4.721,4.721,0,0,0-3.026-1.082,4.69,4.69,0,0,0-1.639.285,4.507,4.507,0,0,0-2.36,2.021,4.648,4.648,0,0,0-.523,1.48Z" transform="translate(-244.664 1350.283)"/><path class="c" d="M550.48,532.455a1.342,1.342,0,0,1-.4-.987V520.891a7.2,7.2,0,0,1,.571-2.84,7.392,7.392,0,0,1,3.948-3.956,7.312,7.312,0,0,1,5.67,0,7.363,7.363,0,0,1,2.353,1.582,7.477,7.477,0,0,1,1.572,2.367,7.372,7.372,0,0,1-1.572,8.044,7.364,7.364,0,0,1-2.353,1.582,7.172,7.172,0,0,1-2.835.573,7.315,7.315,0,0,1-2.541-.437,7.129,7.129,0,0,1-2.165-1.265v4.927a1.419,1.419,0,0,1-.362.987,1.2,1.2,0,0,1-.931.4A1.3,1.3,0,0,1,550.48,532.455Zm8.777-7.24a4.538,4.538,0,0,0,1.5-1.025,4.586,4.586,0,0,0,1-1.5,4.759,4.759,0,0,0,0-3.6,4.709,4.709,0,0,0-6.144-2.507,4.639,4.639,0,0,0-1.5,1.009,4.692,4.692,0,0,0-1.008,1.5,4.671,4.671,0,0,0,0,3.6,4.678,4.678,0,0,0,1.008,1.5,4.549,4.549,0,0,0,1.5,1.025,4.764,4.764,0,0,0,3.641,0Z" transform="translate(-248.626 1350.214)"/><path class="c" d="M550.48,513.921a1.342,1.342,0,0,0-.4.987V525.92a7.2,7.2,0,0,0,.571,2.84,7.392,7.392,0,0,0,3.948,3.956,7.312,7.312,0,0,0,5.67,0,7.364,7.364,0,0,0,2.353-1.582,7.477,7.477,0,0,0,1.572-2.367,7.372,7.372,0,0,0-1.572-8.044,7.367,7.367,0,0,0-2.353-1.582,7.172,7.172,0,0,0-2.835-.573,7.317,7.317,0,0,0-2.541.437,7.128,7.128,0,0,0-2.165,1.265v-5.363a1.419,1.419,0,0,0-.362-.987,1.2,1.2,0,0,0-.931-.4A1.3,1.3,0,0,0,550.48,513.921Zm8.777,7.676a4.537,4.537,0,0,1,1.5,1.025,4.586,4.586,0,0,1,1,1.5,4.759,4.759,0,0,1,0,3.6,4.709,4.709,0,0,1-6.144,2.507,4.638,4.638,0,0,1-1.5-1.009,4.689,4.689,0,0,1-1.008-1.5,4.671,4.671,0,0,1,0-3.6,4.677,4.677,0,0,1,1.008-1.5,4.549,4.549,0,0,1,1.5-1.025,4.763,4.763,0,0,1,3.641,0Z" transform="translate(-299.202 1345.128)"/></g></svg>